<svg width="142" height="21" viewBox="0 0 142 21" fill="none" xmlns="http://www.w3.org/2000/svg">
<path d="M2.46914 0.417219L0 0L2.1875 2.78146L0 18.3576L2.53086 21L5 18.3576L2.8125 2.78146L4.93827 0L2.46914 0.417219Z" fill="#BFA200"/>
<path d="M20.4091 17H16.2195V4.63636H20.4936C21.7211 4.63636 22.7756 4.88388 23.657 5.37891C24.5424 5.86991 25.2225 6.57623 25.6974 7.49787C26.1723 8.41951 26.4098 9.52225 26.4098 10.8061C26.4098 12.094 26.1703 13.2008 25.6914 14.1264C25.2165 15.0521 24.5303 15.7624 23.6328 16.2575C22.7393 16.7525 21.6648 17 20.4091 17ZM18.4592 15.0621H20.3004C21.1617 15.0621 21.8801 14.9052 22.4556 14.5913C23.0311 14.2733 23.4638 13.8004 23.7536 13.1726C24.0433 12.5407 24.1882 11.7519 24.1882 10.8061C24.1882 9.86032 24.0433 9.07552 23.7536 8.4517C23.4638 7.82386 23.0352 7.355 22.4677 7.0451C21.9042 6.73118 21.204 6.57422 20.3668 6.57422H18.4592V15.0621ZM31.1096 17.1871C30.522 17.1871 29.9927 17.0825 29.5218 16.8732C29.055 16.6599 28.6847 16.346 28.411 15.9315C28.1414 15.5169 28.0066 15.0058 28.0066 14.3981C28.0066 13.8749 28.1032 13.4422 28.2963 13.1001C28.4895 12.758 28.7531 12.4844 29.0872 12.2791C29.4212 12.0739 29.7975 11.9189 30.2161 11.8143C30.6387 11.7056 31.0753 11.6271 31.5261 11.5788C32.0694 11.5225 32.5101 11.4722 32.8482 11.4279C33.1863 11.3796 33.4318 11.3072 33.5847 11.2106C33.7417 11.11 33.8201 10.955 33.8201 10.7457V10.7095C33.8201 10.2547 33.6853 9.90258 33.4157 9.65305C33.146 9.40353 32.7576 9.27876 32.2505 9.27876C31.7153 9.27876 31.2907 9.39548 30.9767 9.62891C30.6668 9.86233 30.4576 10.138 30.3489 10.456L28.3084 10.1662C28.4694 9.60275 28.735 9.13187 29.1053 8.75355C29.4756 8.37121 29.9283 8.08546 30.4636 7.89631C30.9989 7.70312 31.5905 7.60653 32.2385 7.60653C32.6852 7.60653 33.1299 7.65885 33.5726 7.76349C34.0153 7.86813 34.4198 8.04119 34.786 8.28267C35.1523 8.52012 35.4461 8.8441 35.6674 9.25462C35.8928 9.66513 36.0055 10.1783 36.0055 10.794V17H33.9047V15.7262H33.8322C33.6994 15.9838 33.5123 16.2253 33.2708 16.4506C33.0333 16.672 32.7335 16.8511 32.3713 16.9879C32.0131 17.1207 31.5925 17.1871 31.1096 17.1871ZM31.677 15.5813C32.1157 15.5813 32.496 15.4948 32.818 15.3217C33.14 15.1446 33.3875 14.9112 33.5605 14.6214C33.7376 14.3317 33.8262 14.0157 33.8262 13.6737V12.581C33.7578 12.6373 33.641 12.6896 33.476 12.7379C33.315 12.7862 33.1339 12.8285 32.9327 12.8647C32.7315 12.9009 32.5323 12.9331 32.335 12.9613C32.1378 12.9895 31.9668 13.0136 31.8219 13.0337C31.4959 13.078 31.2041 13.1504 30.9466 13.2511C30.689 13.3517 30.4857 13.4925 30.3368 13.6737C30.1879 13.8507 30.1135 14.0801 30.1135 14.3619C30.1135 14.7643 30.2604 15.0682 30.5542 15.2734C30.848 15.4787 31.2222 15.5813 31.677 15.5813ZM40.3883 11.5668V17H38.2029V7.72727H40.2917V9.30291H40.4004C40.6137 8.78374 40.9538 8.37121 41.4206 8.06534C41.8915 7.75947 42.4731 7.60653 43.1653 7.60653C43.8052 7.60653 44.3626 7.74337 44.8375 8.01704C45.3165 8.29072 45.6867 8.68714 45.9483 9.20632C46.214 9.7255 46.3448 10.3554 46.3407 11.0959V17H44.1554V11.4339C44.1554 10.8142 43.9944 10.3292 43.6724 9.97905C43.3545 9.62891 42.9138 9.45383 42.3503 9.45383C41.968 9.45383 41.6279 9.53835 41.3301 9.70739C41.0363 9.8724 40.8049 10.1119 40.6358 10.4258C40.4708 10.7397 40.3883 11.12 40.3883 11.5668ZM48.5623 17V7.72727H50.7477V17H48.5623ZM49.661 6.41122C49.3149 6.41122 49.0171 6.29652 48.7676 6.06712C48.5181 5.83369 48.3933 5.55398 48.3933 5.22798C48.3933 4.89796 48.5181 4.61825 48.7676 4.38885C49.0171 4.15542 49.3149 4.03871 49.661 4.03871C50.0112 4.03871 50.309 4.15542 50.5545 4.38885C50.804 4.61825 50.9288 4.89796 50.9288 5.22798C50.9288 5.55398 50.804 5.83369 50.5545 6.06712C50.309 6.29652 50.0112 6.41122 49.661 6.41122ZM57.1001 17.1811C56.1704 17.1811 55.3675 16.9879 54.6913 16.6016C54.0192 16.2112 53.502 15.6598 53.1398 14.9474C52.7776 14.2311 52.5965 13.3879 52.5965 12.418C52.5965 11.4641 52.7776 10.627 53.1398 9.9066C53.5061 9.18217 54.0172 8.61873 54.6732 8.21626C55.3292 7.80978 56.0999 7.60653 56.9854 7.60653C57.5568 7.60653 58.0961 7.6991 58.6032 7.88423C59.1144 8.06534 59.5651 8.34706 59.9555 8.7294C60.3499 9.11174 60.6598 9.59872 60.8852 10.1903C61.1106 10.7779 61.2233 11.4782 61.2233 12.2912V12.9613H53.6228V11.4883H59.1285C59.1244 11.0697 59.0339 10.6974 58.8568 10.3714C58.6797 10.0414 58.4322 9.78184 58.1143 9.59268C57.8003 9.40353 57.4341 9.30895 57.0155 9.30895C56.5688 9.30895 56.1764 9.41761 55.8383 9.63494C55.5003 9.84825 55.2367 10.13 55.0475 10.4801C54.8624 10.8262 54.7678 11.2066 54.7638 11.6211V12.907C54.7638 13.4463 54.8624 13.9091 55.0596 14.2955C55.2568 14.6778 55.5325 14.9716 55.8866 15.1768C56.2408 15.3781 56.6553 15.4787 57.1302 15.4787C57.4482 15.4787 57.7359 15.4344 57.9935 15.3459C58.2511 15.2533 58.4745 15.1185 58.6636 14.9414C58.8528 14.7643 58.9957 14.545 59.0922 14.2834L61.1327 14.5128C61.0039 15.0521 60.7584 15.523 60.3962 15.9254C60.038 16.3239 59.5792 16.6338 59.0198 16.8551C58.4604 17.0724 57.8205 17.1811 57.1001 17.1811ZM65.2575 4.63636V17H63.0721V4.63636H65.2575ZM82.4008 8.80788H80.143C80.0786 8.43762 79.9599 8.10961 79.7868 7.82386C79.6138 7.53409 79.3985 7.28859 79.1409 7.08736C78.8833 6.88613 78.5895 6.7352 78.2595 6.63459C77.9335 6.52995 77.5814 6.47763 77.203 6.47763C76.5309 6.47763 75.9353 6.64666 75.4161 6.98473C74.8969 7.31877 74.4904 7.80978 74.1966 8.45774C73.9028 9.10168 73.7559 9.88849 73.7559 10.8182C73.7559 11.764 73.9028 12.5608 74.1966 13.2088C74.4945 13.8527 74.901 14.3397 75.4161 14.6697C75.9353 14.9957 76.5289 15.1587 77.197 15.1587C77.5673 15.1587 77.9134 15.1104 78.2354 15.0138C78.5613 14.9132 78.8531 14.7663 79.1107 14.5732C79.3723 14.38 79.5916 14.1425 79.7687 13.8608C79.9498 13.5791 80.0746 13.2571 80.143 12.8949L82.4008 12.907C82.3163 13.4946 82.1332 14.0459 81.8515 14.5611C81.5738 15.0762 81.2095 15.531 80.7588 15.9254C80.308 16.3158 79.7808 16.6217 79.1771 16.843C78.5734 17.0604 77.9033 17.169 77.1668 17.169C76.0802 17.169 75.1102 16.9175 74.257 16.4144C73.4038 15.9113 72.7317 15.1849 72.2407 14.2351C71.7497 13.2853 71.5042 12.1463 71.5042 10.8182C71.5042 9.48603 71.7517 8.34706 72.2467 7.40128C72.7417 6.45147 73.4159 5.72502 74.2691 5.22195C75.1223 4.71887 76.0882 4.46733 77.1668 4.46733C77.855 4.46733 78.4949 4.56392 79.0866 4.7571C79.6782 4.95028 80.2054 5.23402 80.6682 5.60831C81.1311 5.97857 81.5114 6.43336 81.8092 6.97266C82.1111 7.50793 82.3083 8.11967 82.4008 8.80788ZM86.5407 4.63636V17H84.3553V4.63636H86.5407ZM94.6981 13.1001V7.72727H96.8834V17H94.7645V15.3519H94.6679C94.4586 15.8711 94.1145 16.2957 93.6356 16.6257C93.1607 16.9557 92.5751 17.1207 91.8788 17.1207C91.2711 17.1207 90.7338 16.9859 90.267 16.7163C89.8041 16.4426 89.4419 16.0462 89.1803 15.527C88.9187 15.0038 88.7879 14.3719 88.7879 13.6314V7.72727H90.9733V13.2933C90.9733 13.8809 91.1343 14.3478 91.4562 14.6939C91.7782 15.04 92.2008 15.2131 92.724 15.2131C93.046 15.2131 93.3579 15.1346 93.6597 14.9776C93.9616 14.8207 94.2091 14.5872 94.4023 14.2773C94.5995 13.9634 94.6981 13.571 94.6981 13.1001ZM103.175 17.1811C102.25 17.1811 101.455 16.9779 100.791 16.5714C100.131 16.1649 99.6217 15.6035 99.2635 14.8871C98.9093 14.1667 98.7322 13.3376 98.7322 12.3999C98.7322 11.4581 98.9134 10.627 99.2756 9.9066C99.6378 9.18217 100.149 8.61873 100.809 8.21626C101.473 7.80978 102.258 7.60653 103.163 7.60653C103.916 7.60653 104.582 7.74538 105.162 8.02308C105.745 8.29676 106.21 8.68513 106.556 9.18821C106.902 9.68726 107.099 10.2708 107.148 10.9389H105.059C104.974 10.4922 104.773 10.1199 104.455 9.82209C104.141 9.52024 103.721 9.36932 103.194 9.36932C102.747 9.36932 102.354 9.49006 102.016 9.73153C101.678 9.96899 101.415 10.3111 101.225 10.7578C101.04 11.2045 100.948 11.7398 100.948 12.3636C100.948 12.9955 101.04 13.5388 101.225 13.9936C101.411 14.4444 101.67 14.7925 102.004 15.038C102.342 15.2795 102.739 15.4002 103.194 15.4002C103.516 15.4002 103.803 15.3398 104.057 15.2191C104.314 15.0943 104.53 14.9152 104.703 14.6818C104.876 14.4484 104.995 14.1647 105.059 13.8306H107.148C107.095 14.4866 106.902 15.0682 106.568 15.5753C106.234 16.0784 105.779 16.4728 105.204 16.7585C104.628 17.0402 103.952 17.1811 103.175 17.1811ZM110.934 14.0902L110.928 11.4521H111.278L114.611 7.72727H117.165L113.065 12.2912H112.613L110.934 14.0902ZM108.942 17V4.63636H111.128V17H108.942ZM114.762 17L111.743 12.7802L113.216 11.2408L117.376 17H114.762ZM118.621 17V7.72727H120.806V17H118.621ZM119.72 6.41122C119.374 6.41122 119.076 6.29652 118.826 6.06712C118.577 5.83369 118.452 5.55398 118.452 5.22798C118.452 4.89796 118.577 4.61825 118.826 4.38885C119.076 4.15542 119.374 4.03871 119.72 4.03871C120.07 4.03871 120.368 4.15542 120.613 4.38885C120.863 4.61825 120.987 4.89796 120.987 5.22798C120.987 5.55398 120.863 5.83369 120.613 6.06712C120.368 6.29652 120.07 6.41122 119.72 6.41122ZM125.239 11.5668V17H123.054V7.72727H125.142V9.30291H125.251C125.464 8.78374 125.804 8.37121 126.271 8.06534C126.742 7.75947 127.324 7.60653 128.016 7.60653C128.656 7.60653 129.213 7.74337 129.688 8.01704C130.167 8.29072 130.537 8.68714 130.799 9.20632C131.065 9.7255 131.195 10.3554 131.191 11.0959V17H129.006V11.4339C129.006 10.8142 128.845 10.3292 128.523 9.97905C128.205 9.62891 127.764 9.45383 127.201 9.45383C126.819 9.45383 126.478 9.53835 126.181 9.70739C125.887 9.8724 125.655 10.1119 125.486 10.4258C125.321 10.7397 125.239 11.12 125.239 11.5668ZM140.742 10.1783L138.75 10.3956C138.693 10.1944 138.595 10.0052 138.454 9.82812C138.317 9.65104 138.132 9.50817 137.898 9.3995C137.665 9.29084 137.379 9.23651 137.041 9.23651C136.586 9.23651 136.204 9.33511 135.894 9.53231C135.588 9.72952 135.437 9.98509 135.441 10.299C135.437 10.5687 135.536 10.788 135.737 10.957C135.942 11.1261 136.28 11.2649 136.751 11.3736L138.333 11.7116C139.21 11.9008 139.862 12.2006 140.289 12.6112C140.72 13.0217 140.937 13.5589 140.941 14.223C140.937 14.8066 140.766 15.3217 140.428 15.7685C140.094 16.2112 139.629 16.5573 139.033 16.8068C138.438 17.0563 137.753 17.1811 136.981 17.1811C135.846 17.1811 134.932 16.9437 134.24 16.4688C133.548 15.9898 133.135 15.3237 133.002 14.4705L135.133 14.2653C135.23 14.6838 135.435 14.9998 135.749 15.2131C136.063 15.4264 136.472 15.533 136.975 15.533C137.494 15.533 137.91 15.4264 138.224 15.2131C138.542 14.9998 138.701 14.7362 138.701 14.4222C138.701 14.1566 138.599 13.9373 138.393 13.7642C138.192 13.5911 137.878 13.4583 137.452 13.3658L135.87 13.0337C134.98 12.8486 134.322 12.5367 133.896 12.098C133.469 11.6553 133.258 11.0959 133.262 10.4197C133.258 9.84825 133.413 9.35322 133.727 8.93466C134.045 8.51207 134.485 8.18608 135.049 7.95668C135.616 7.72325 136.27 7.60653 137.011 7.60653C138.098 7.60653 138.953 7.83795 139.577 8.30078C140.204 8.76361 140.593 9.38944 140.742 10.1783Z" fill="white"/>
</svg>
