<svg width="123" height="21" viewBox="0 0 123 21" fill="none" xmlns="http://www.w3.org/2000/svg">
<path d="M22.938 2.4674C20.4978 5.85436 18.3225 9.03512 16.286 12.683C14.969 15.0423 13.7824 17.6904 12.3584 19.9595C12.2418 20.1457 11.99 20.5248 11.8575 20.6797C11.7927 20.7558 11.6175 20.942 11.5326 20.9659C11.3546 21.0166 10.3929 21.0034 10.1728 20.9739C8.39222 20.737 4.19421 16.5131 2.95861 15.1203C2.14315 14.2014 0.72956 12.5396 0.254222 11.4824C-0.103832 10.6869 -0.241121 9.19663 0.928938 9.0398C2.82339 8.78553 5.56295 10.2591 7.12143 11.2468C8.00242 11.8054 8.78063 12.4982 9.6761 13.0334C10.4364 12.0864 11.0476 11.0246 11.7582 10.0389C13.6078 7.47411 15.7265 4.90001 18.135 2.79308C19.1056 1.94284 21.4299 0.100851 22.6524 0.0207646C23.2973 -0.0212805 24.1176 -0.0833473 23.9859 0.774241C23.9162 1.22473 23.229 2.06429 22.9387 2.4674H22.938ZM21.723 2.15972C21.6561 2.09232 20.9925 2.64626 20.8945 2.72567C17.4581 5.514 14.1824 9.96479 11.8714 13.6848C11.6596 14.0252 10.7627 15.7784 10.5461 15.8732C10.1211 16.0587 9.62575 15.6696 9.28976 15.4406C8.45775 14.874 7.66506 14.1833 6.81581 13.6107C6.02657 13.0781 4.2839 11.8582 3.44361 11.6005C3.35392 11.5732 3.16695 11.5271 3.09659 11.6026C4.67644 13.548 6.47154 15.4533 8.44464 17.0437C8.56675 17.1426 8.66196 17.2125 8.78683 17.3074C9.10418 17.5483 10.2411 18.508 10.6137 18.3459C10.7303 18.295 11.8969 16.6566 12.0666 16.4097C14.4551 12.938 16.5157 9.28339 19.0021 5.83369C19.8141 4.70713 20.8537 3.54789 21.6133 2.42C21.6685 2.33859 21.7423 2.26851 21.7223 2.15907L21.723 2.15972Z" fill="#36CCFE"/>
<path d="M35.2195 17V4.63636H39.8558C40.8056 4.63636 41.6025 4.81345 42.2464 5.16761C42.8944 5.52178 43.3834 6.00876 43.7134 6.62855C44.0475 7.24432 44.2145 7.9446 44.2145 8.7294C44.2145 9.52225 44.0475 10.2266 43.7134 10.8423C43.3794 11.4581 42.8864 11.9431 42.2344 12.2972C41.5824 12.6474 40.7795 12.8224 39.8256 12.8224H36.7528V10.9812H39.5238C40.0792 10.9812 40.534 10.8846 40.8881 10.6914C41.2423 10.4982 41.5039 10.2326 41.6729 9.89453C41.846 9.55646 41.9325 9.16809 41.9325 8.7294C41.9325 8.29072 41.846 7.90436 41.6729 7.57031C41.5039 7.23627 41.2403 6.97668 40.8821 6.79155C40.5279 6.60239 40.0711 6.50781 39.5117 6.50781H37.4592V17H35.2195ZM50.0356 17.1811C49.1059 17.1811 48.303 16.9879 47.6269 16.6016C46.9548 16.2112 46.4376 15.6598 46.0754 14.9474C45.7132 14.2311 45.532 13.3879 45.532 12.418C45.532 11.4641 45.7132 10.627 46.0754 9.9066C46.4416 9.18217 46.9527 8.61873 47.6088 8.21626C48.2648 7.80978 49.0355 7.60653 49.9209 7.60653C50.4924 7.60653 51.0317 7.6991 51.5388 7.88423C52.0499 8.06534 52.5007 8.34706 52.8911 8.7294C53.2855 9.11174 53.5954 9.59872 53.8208 10.1903C54.0461 10.7779 54.1588 11.4782 54.1588 12.2912V12.9613H46.5583V11.4883H52.064C52.06 11.0697 51.9694 10.6974 51.7923 10.3714C51.6153 10.0414 51.3678 9.78184 51.0498 9.59268C50.7359 9.40353 50.3696 9.30895 49.9511 9.30895C49.5044 9.30895 49.1119 9.41761 48.7739 9.63494C48.4358 9.84825 48.1722 10.13 47.983 10.4801C47.7979 10.8262 47.7033 11.2066 47.6993 11.6211V12.907C47.6993 13.4463 47.7979 13.9091 47.9951 14.2955C48.1923 14.6778 48.468 14.9716 48.8222 15.1768C49.1763 15.3781 49.5909 15.4787 50.0658 15.4787C50.3837 15.4787 50.6715 15.4344 50.9291 15.3459C51.1866 15.2533 51.41 15.1185 51.5992 14.9414C51.7883 14.7643 51.9312 14.545 52.0278 14.2834L54.0683 14.5128C53.9395 15.0521 53.694 15.523 53.3318 15.9254C52.9736 16.3239 52.5148 16.6338 51.9553 16.8551C51.3959 17.0724 50.756 17.1811 50.0356 17.1811ZM56.0076 17V7.72727H58.1266V9.27273H58.2232C58.3922 8.73745 58.682 8.32493 59.0925 8.03516C59.507 7.74136 59.9799 7.59446 60.5112 7.59446C60.6319 7.59446 60.7667 7.6005 60.9157 7.61257C61.0686 7.62062 61.1954 7.63471 61.296 7.65483V9.66513C61.2034 9.63293 61.0565 9.60476 60.8553 9.58061C60.6581 9.55244 60.4669 9.53835 60.2818 9.53835C59.8833 9.53835 59.5252 9.62488 59.2072 9.79794C58.8933 9.96697 58.6458 10.2024 58.4647 10.5043C58.2836 10.8061 58.193 11.1542 58.193 11.5487V17H56.0076ZM70.0767 10.1783L68.0845 10.3956C68.0282 10.1944 67.9296 10.0052 67.7887 9.82812C67.6519 9.65104 67.4667 9.50817 67.2333 9.3995C66.9999 9.29084 66.7141 9.23651 66.3761 9.23651C65.9213 9.23651 65.5389 9.33511 65.229 9.53231C64.9232 9.72952 64.7723 9.98509 64.7763 10.299C64.7723 10.5687 64.8709 10.788 65.0721 10.957C65.2773 11.1261 65.6154 11.2649 66.0863 11.3736L67.668 11.7116C68.5453 11.9008 69.1973 12.2006 69.6239 12.6112C70.0546 13.0217 70.2719 13.5589 70.2759 14.223C70.2719 14.8066 70.1009 15.3217 69.7628 15.7685C69.4287 16.2112 68.9639 16.5573 68.3683 16.8068C67.7726 17.0563 67.0884 17.1811 66.3157 17.1811C65.1808 17.1811 64.2672 16.9437 63.5749 16.4688C62.8827 15.9898 62.4702 15.3237 62.3374 14.4705L64.4684 14.2653C64.565 14.6838 64.7702 14.9998 65.0842 15.2131C65.3981 15.4264 65.8066 15.533 66.3097 15.533C66.8288 15.533 67.2454 15.4264 67.5593 15.2131C67.8772 14.9998 68.0362 14.7362 68.0362 14.4222C68.0362 14.1566 67.9336 13.9373 67.7283 13.7642C67.5271 13.5911 67.2132 13.4583 66.7866 13.3658L65.2049 13.0337C64.3155 12.8486 63.6574 12.5367 63.2308 12.098C62.8042 11.6553 62.5929 11.0959 62.5969 10.4197C62.5929 9.84825 62.7479 9.35322 63.0618 8.93466C63.3797 8.51207 63.8204 8.18608 64.3839 7.95668C64.9513 7.72325 65.6054 7.60653 66.3459 7.60653C67.4325 7.60653 68.2878 7.83795 68.9116 8.30078C69.5394 8.76361 69.9278 9.38944 70.0767 10.1783ZM72.0779 20.4773V7.72727H74.2271V9.26065H74.3539C74.4666 9.03527 74.6255 8.79581 74.8308 8.54226C75.036 8.28468 75.3137 8.06534 75.6639 7.88423C76.014 7.6991 76.4608 7.60653 77.0041 7.60653C77.7205 7.60653 78.3664 7.78965 78.9419 8.15589C79.5215 8.51811 79.9803 9.0554 80.3184 9.76776C80.6605 10.4761 80.8315 11.3454 80.8315 12.3757C80.8315 13.3939 80.6645 14.2592 80.3304 14.9716C79.9964 15.6839 79.5416 16.2273 78.9661 16.6016C78.3906 16.9759 77.7386 17.163 77.0101 17.163C76.4789 17.163 76.0382 17.0745 75.688 16.8974C75.3379 16.7203 75.0562 16.507 74.8429 16.2575C74.6336 16.0039 74.4706 15.7644 74.3539 15.5391H74.2633V20.4773H72.0779ZM74.2211 12.3636C74.2211 12.9633 74.3056 13.4885 74.4746 13.9393C74.6477 14.39 74.8952 14.7422 75.2172 14.9957C75.5431 15.2453 75.9376 15.37 76.4004 15.37C76.8833 15.37 77.2878 15.2412 77.6138 14.9837C77.9398 14.7221 78.1853 14.3659 78.3503 13.9151C78.5194 13.4603 78.6039 12.9432 78.6039 12.3636C78.6039 11.7881 78.5214 11.277 78.3564 10.8303C78.1913 10.3835 77.9458 10.0334 77.6199 9.77983C77.2939 9.52628 76.8874 9.3995 76.4004 9.3995C75.9335 9.3995 75.5371 9.52225 75.2111 9.76776C74.8851 10.0133 74.6376 10.3574 74.4686 10.8001C74.3036 11.2428 74.2211 11.764 74.2211 12.3636ZM86.8081 17.1811C85.8784 17.1811 85.0755 16.9879 84.3993 16.6016C83.7272 16.2112 83.21 15.6598 82.8478 14.9474C82.4856 14.2311 82.3045 13.3879 82.3045 12.418C82.3045 11.4641 82.4856 10.627 82.8478 9.9066C83.2141 9.18217 83.7252 8.61873 84.3812 8.21626C85.0372 7.80978 85.8079 7.60653 86.6934 7.60653C87.2649 7.60653 87.8042 7.6991 88.3113 7.88423C88.8224 8.06534 89.2731 8.34706 89.6635 8.7294C90.0579 9.11174 90.3678 9.59872 90.5932 10.1903C90.8186 10.7779 90.9313 11.4782 90.9313 12.2912V12.9613H83.3308V11.4883H88.8365C88.8324 11.0697 88.7419 10.6974 88.5648 10.3714C88.3877 10.0414 88.1402 9.78184 87.8223 9.59268C87.5083 9.40353 87.1421 9.30895 86.7235 9.30895C86.2768 9.30895 85.8844 9.41761 85.5463 9.63494C85.2083 9.84825 84.9447 10.13 84.7555 10.4801C84.5704 10.8262 84.4758 11.2066 84.4718 11.6211V12.907C84.4718 13.4463 84.5704 13.9091 84.7676 14.2955C84.9648 14.6778 85.2405 14.9716 85.5946 15.1768C85.9488 15.3781 86.3633 15.4787 86.8382 15.4787C87.1562 15.4787 87.444 15.4344 87.7015 15.3459C87.9591 15.2533 88.1825 15.1185 88.3716 14.9414C88.5608 14.7643 88.7037 14.545 88.8002 14.2834L90.8407 14.5128C90.7119 15.0521 90.4664 15.523 90.1042 15.9254C89.746 16.3239 89.2872 16.6338 88.7278 16.8551C88.1684 17.0724 87.5285 17.1811 86.8081 17.1811ZM96.8248 17.1811C95.8992 17.1811 95.1043 16.9779 94.4403 16.5714C93.7802 16.1649 93.2711 15.6035 92.9129 14.8871C92.5587 14.1667 92.3817 13.3376 92.3817 12.3999C92.3817 11.4581 92.5628 10.627 92.925 9.9066C93.2872 9.18217 93.7983 8.61873 94.4584 8.21626C95.1224 7.80978 95.9072 7.60653 96.8128 7.60653C97.5654 7.60653 98.2314 7.74538 98.811 8.02308C99.3946 8.29676 99.8594 8.68513 100.206 9.18821C100.552 9.68726 100.749 10.2708 100.797 10.9389H98.7084C98.6238 10.4922 98.4226 10.1199 98.1047 9.82209C97.7907 9.52024 97.3702 9.36932 96.843 9.36932C96.3962 9.36932 96.0038 9.49006 95.6657 9.73153C95.3277 9.96899 95.0641 10.3111 94.8749 10.7578C94.6898 11.2045 94.5972 11.7398 94.5972 12.3636C94.5972 12.9955 94.6898 13.5388 94.8749 13.9936C95.06 14.4444 95.3196 14.7925 95.6537 15.038C95.9917 15.2795 96.3882 15.4002 96.843 15.4002C97.1649 15.4002 97.4527 15.3398 97.7062 15.2191C97.9638 15.0943 98.1791 14.9152 98.3522 14.6818C98.5252 14.4484 98.644 14.1647 98.7084 13.8306H100.797C100.745 14.4866 100.552 15.0682 100.218 15.5753C99.8836 16.0784 99.4288 16.4728 98.8532 16.7585C98.2777 17.0402 97.6016 17.1811 96.8248 17.1811ZM107.222 7.72727V9.41761H101.891V7.72727H107.222ZM103.207 5.50568H105.393V14.2109C105.393 14.5047 105.437 14.7301 105.526 14.8871C105.618 15.04 105.739 15.1446 105.888 15.201C106.037 15.2573 106.202 15.2855 106.383 15.2855C106.52 15.2855 106.644 15.2754 106.757 15.2553C106.874 15.2352 106.962 15.2171 107.023 15.201L107.391 16.9094C107.274 16.9497 107.107 16.994 106.89 17.0423C106.677 17.0906 106.415 17.1187 106.105 17.1268C105.558 17.1429 105.065 17.0604 104.626 16.8793C104.187 16.6941 103.839 16.4084 103.582 16.022C103.328 15.6357 103.203 15.1527 103.207 14.5732V5.50568ZM109.05 17V7.72727H111.235V17H109.05ZM110.148 6.41122C109.802 6.41122 109.504 6.29652 109.255 6.06712C109.005 5.83369 108.881 5.55398 108.881 5.22798C108.881 4.89796 109.005 4.61825 109.255 4.38885C109.504 4.15542 109.802 4.03871 110.148 4.03871C110.498 4.03871 110.796 4.15542 111.042 4.38885C111.291 4.61825 111.416 4.89796 111.416 5.22798C111.416 5.55398 111.291 5.83369 111.042 6.06712C110.796 6.29652 110.498 6.41122 110.148 6.41122ZM121.765 7.72727L118.463 17H116.048L112.746 7.72727H115.076L117.207 14.6154H117.304L119.441 7.72727H121.765Z" fill="white"/>
</svg>
