<svg width="70" height="80" viewBox="0 0 70 80" fill="none" xmlns="http://www.w3.org/2000/svg">
<path fill-rule="evenodd" clip-rule="evenodd" d="M2 30.5V59C2 69.4934 10.5066 78 21 78H49.5C59.9934 78 68.5 69.4934 68.5 59V30.5C68.5 20.0066 59.9934 11.5 49.5 11.5H21C10.5066 11.5 2 20.0066 2 30.5Z" stroke="white" stroke-width="2.5" stroke-linecap="round" stroke-linejoin="round"/>
<path d="M48.25 16.25C48.25 16.9404 48.8096 17.5 49.5 17.5C50.1904 17.5 50.75 16.9404 50.75 16.25H49.5H48.25ZM50.75 2C50.75 1.30964 50.1904 0.75 49.5 0.75C48.8096 0.75 48.25 1.30964 48.25 2H49.5H50.75ZM19.75 16.25C19.75 16.9404 20.3096 17.5 21 17.5C21.6904 17.5 22.25 16.9404 22.25 16.25H21H19.75ZM22.25 2C22.25 1.30964 21.6904 0.75 21 0.75C20.3096 0.75 19.75 1.30964 19.75 2H21H22.25ZM19.75 36.6061C19.75 37.2965 20.3096 37.8561 21 37.8561C21.6904 37.8561 22.25 37.2965 22.25 36.6061H21H19.75ZM35.25 36.6061L36.4978 36.6805C36.4993 36.6557 36.5 36.6309 36.5 36.6061H35.25ZM32.2277 42.6929L33.0411 43.642L32.2277 42.6929ZM25.75 44.7476L25.6324 43.5032C24.9905 43.5638 24.5 44.1028 24.5 44.7476C24.5 45.3924 24.9905 45.9314 25.6324 45.9921L25.75 44.7476ZM32.2277 46.8024L33.0411 45.8533L32.2277 46.8024ZM35.25 52.8891H36.5C36.5 52.8643 36.4993 52.8395 36.4978 52.8148L35.25 52.8891ZM22.25 52.8891C22.25 52.1988 21.6904 51.6391 21 51.6391C20.3096 51.6391 19.75 52.1988 19.75 52.8891H21H22.25ZM43.9366 33.6216C43.4124 34.0708 43.3516 34.86 43.8009 35.3842C44.2501 35.9084 45.0392 35.9691 45.5634 35.5199L44.75 34.5708L43.9366 33.6216ZM49.5 30.5H50.75C50.75 30.0119 50.4658 29.5684 50.0224 29.3644C49.5789 29.1604 49.0572 29.2332 48.6866 29.5509L49.5 30.5ZM48.25 59C48.25 59.6904 48.8096 60.25 49.5 60.25C50.1904 60.25 50.75 59.6904 50.75 59H49.5H48.25ZM49.5 16.25H50.75V2H49.5H48.25V16.25H49.5ZM21 16.25H22.25V2H21H19.75V16.25H21ZM21 36.6061H22.25C22.25 34.9832 22.9403 33.816 23.984 33.0209C25.0625 32.1993 26.5628 31.75 28.125 31.75C29.6872 31.75 31.1875 32.1993 32.266 33.0209C33.3097 33.816 34 34.9832 34 36.6061H35.25H36.5C36.5 34.1583 35.4091 32.2725 33.7809 31.0322C32.1875 29.8184 30.1253 29.25 28.125 29.25C26.1247 29.25 24.0625 29.8184 22.4691 31.0322C20.8409 32.2725 19.75 34.1583 19.75 36.6061H21ZM35.25 36.6061L34.0022 36.5318C33.8821 38.5482 32.9481 40.4293 31.4143 41.7437L32.2277 42.6929L33.0411 43.642C35.0898 41.8863 36.3373 39.3737 36.4978 36.6805L35.25 36.6061ZM32.2277 42.6929L31.4143 41.7437C29.8805 43.0582 27.8786 43.6932 25.8676 43.5032L25.75 44.7476L25.6324 45.9921C28.3185 46.2459 30.9924 45.3977 33.0411 43.642L32.2277 42.6929ZM25.75 44.7476L25.8676 45.9921C27.8786 45.8021 29.8805 46.4371 31.4143 47.7515L32.2277 46.8024L33.0411 45.8533C30.9924 44.0976 28.3185 43.2494 25.6324 43.5032L25.75 44.7476ZM32.2277 46.8024L31.4143 47.7515C32.9481 49.066 33.8821 50.9471 34.0022 52.9635L35.25 52.8891L36.4978 52.8148C36.3373 50.1215 35.0898 47.609 33.0411 45.8533L32.2277 46.8024ZM35.25 52.8891H34C34 54.5121 33.3097 55.6793 32.266 56.4744C31.1875 57.2959 29.6872 57.7452 28.125 57.7452C26.5628 57.7452 25.0625 57.2959 23.984 56.4744C22.9403 55.6793 22.25 54.5121 22.25 52.8891H21H19.75C19.75 55.3369 20.8409 57.2228 22.4691 58.4631C24.0625 59.6769 26.1247 60.2452 28.125 60.2452C30.1253 60.2452 32.1875 59.6769 33.7809 58.4631C35.4091 57.2228 36.5 55.3369 36.5 52.8891H35.25ZM44.75 34.5708L45.5634 35.5199L50.3134 31.4491L49.5 30.5L48.6866 29.5509L43.9366 33.6216L44.75 34.5708ZM49.5 30.5H48.25V59H49.5H50.75V30.5H49.5Z" fill="white"/>
</svg>
