<svg width="84" height="77" viewBox="0 0 84 77" fill="none" xmlns="http://www.w3.org/2000/svg">
<path d="M41 26C41 26.5523 41.4477 27 42 27C42.5523 27 43 26.5523 43 26H42H41ZM2 42.6667C2 42.1144 1.55228 41.6667 1 41.6667C0.447715 41.6667 0 42.1144 0 42.6667H1H2ZM0 59.3333C0 59.8856 0.447715 60.3333 1 60.3333C1.55228 60.3333 2 59.8856 2 59.3333H1H0ZM84 42.6667C84 42.1144 83.5523 41.6667 83 41.6667C82.4477 41.6667 82 42.1144 82 42.6667H83H84ZM82 59.3333C82 59.8856 82.4477 60.3333 83 60.3333C83.5523 60.3333 84 59.8856 84 59.3333H83H82ZM15.35 26V27H68.65V26V25H15.35V26ZM68.65 26V27C70.3469 27 71.75 28.4025 71.75 30.1667H72.75H73.75C73.75 27.3285 71.4818 25 68.65 25V26ZM72.75 30.1667H71.75V71.8333H72.75H73.75V30.1667H72.75ZM72.75 71.8333H71.75C71.75 73.5975 70.3469 75 68.65 75V76V77C71.4818 77 73.75 74.6715 73.75 71.8333H72.75ZM68.65 76V75H15.35V76V77H68.65V76ZM15.35 76V75C13.6531 75 12.25 73.5975 12.25 71.8333H11.25H10.25C10.25 74.6715 12.5182 77 15.35 77V76ZM11.25 71.8333H12.25V30.1667H11.25H10.25V71.8333H11.25ZM11.25 30.1667H12.25C12.25 28.4025 13.6531 27 15.35 27V26V25C12.5182 25 10.25 27.3285 10.25 30.1667H11.25ZM31.75 42.6667H30.75C30.75 44.4308 29.3469 45.8333 27.65 45.8333V46.8333V47.8333C30.4818 47.8333 32.75 45.5049 32.75 42.6667H31.75ZM27.65 46.8333V45.8333C25.9531 45.8333 24.55 44.4308 24.55 42.6667H23.55H22.55C22.55 45.5049 24.8182 47.8333 27.65 47.8333V46.8333ZM23.55 42.6667H24.55C24.55 40.9025 25.9531 39.5 27.65 39.5V38.5V37.5C24.8182 37.5 22.55 39.8285 22.55 42.6667H23.55ZM27.65 38.5V39.5C29.3469 39.5 30.75 40.9025 30.75 42.6667H31.75H32.75C32.75 39.8285 30.4818 37.5 27.65 37.5V38.5ZM60.45 42.6667H59.45C59.45 44.4308 58.0469 45.8333 56.35 45.8333V46.8333V47.8333C59.1818 47.8333 61.45 45.5049 61.45 42.6667H60.45ZM56.35 46.8333V45.8333C54.6531 45.8333 53.25 44.4308 53.25 42.6667H52.25H51.25C51.25 45.5049 53.5182 47.8333 56.35 47.8333V46.8333ZM52.25 42.6667H53.25C53.25 40.9025 54.6531 39.5 56.35 39.5V38.5V37.5C53.5182 37.5 51.25 39.8285 51.25 42.6667H52.25ZM56.35 38.5V39.5C58.0469 39.5 59.45 40.9025 59.45 42.6667H60.45H61.45C61.45 39.8285 59.1818 37.5 56.35 37.5V38.5ZM33.8 55.1667V54.1667C30.9681 54.1667 28.7 56.4951 28.7 59.3333H29.7H30.7C30.7 57.5691 32.103 56.1667 33.8 56.1667V55.1667ZM29.7 59.3333H28.7C28.7 62.1716 30.9681 64.5 33.8 64.5V63.5V62.5C32.103 62.5 30.7 61.0976 30.7 59.3333H29.7ZM33.8 63.5H34.8V55.1667H33.8H32.8V63.5H33.8ZM50.2 63.5V64.5C53.0319 64.5 55.3 62.1716 55.3 59.3333H54.3H53.3C53.3 61.0976 51.897 62.5 50.2 62.5V63.5ZM54.3 59.3333H55.3C55.3 56.4951 53.0319 54.1667 50.2 54.1667V55.1667V56.1667C51.897 56.1667 53.3 57.5691 53.3 59.3333H54.3ZM50.2 55.1667H49.2V63.5H50.2H51.2V55.1667H50.2ZM33.8 63.5V64.5H50.2V63.5V62.5H33.8V63.5ZM50.2 55.1667V54.1667H33.8V55.1667V56.1667H50.2V55.1667ZM42 9.33333H41V26H42H43V9.33333H42ZM1 42.6667H0V59.3333H1H2V42.6667H1ZM83 42.6667H82V59.3333H83H84V42.6667H83ZM46.1 5.16667H45.1C45.1 6.93084 43.6969 8.33333 42 8.33333V9.33333V10.3333C44.8318 10.3333 47.1 8.00487 47.1 5.16667H46.1ZM42 9.33333V8.33333C40.3031 8.33333 38.9 6.93083 38.9 5.16667H37.9H36.9C36.9 8.00487 39.1682 10.3333 42 10.3333V9.33333ZM37.9 5.16667H38.9C38.9 3.4025 40.3031 2 42 2V1V0C39.1682 0 36.9 2.32846 36.9 5.16667H37.9ZM42 1V2C43.6969 2 45.1 3.4025 45.1 5.16667H46.1H47.1C47.1 2.32846 44.8318 0 42 0V1Z" fill="white"/>
</svg>
