<svg width="101" height="80" viewBox="0 0 101 80" fill="none" xmlns="http://www.w3.org/2000/svg">
<path d="M36.6198 78.0032C36.6198 78.6935 37.1795 79.2532 37.8698 79.2532C38.5602 79.2532 39.1198 78.6935 39.1198 78.0032H37.8698H36.6198ZM37.8698 65.8979L36.6207 65.8502C36.6201 65.8661 36.6198 65.882 36.6198 65.8979H37.8698ZM50.8907 53.7982L50.8467 55.0474C50.876 55.0484 50.9054 55.0484 50.9347 55.0474L50.8907 53.7982ZM63.9116 65.8979H65.1616C65.1616 65.882 65.1613 65.8661 65.1607 65.8502L63.9116 65.8979ZM62.6616 78.0032C62.6616 78.6935 63.2212 79.2532 63.9116 79.2532C64.602 79.2532 65.1616 78.6935 65.1616 78.0032H63.9116H62.6616ZM37.8698 76.7387C37.1795 76.7387 36.6198 77.2983 36.6198 77.9887C36.6198 78.6791 37.1795 79.2387 37.8698 79.2387V77.9887V76.7387ZM63.9127 79.2387C64.603 79.2387 65.1627 78.6791 65.1627 77.9887C65.1627 77.2983 64.603 76.7387 63.9127 76.7387V77.9887V79.2387ZM37.7681 79.1715C38.4585 79.1715 39.0181 78.6118 39.0181 77.9215C39.0181 77.2311 38.4585 76.6715 37.7681 76.6715V77.9215V79.1715ZM34.5131 77.9215V76.6715C34.4984 76.6715 34.4838 76.6717 34.4691 76.6723L34.5131 77.9215ZM14.9831 59.7672H13.7331C13.7331 59.783 13.7334 59.7988 13.734 59.8146L14.9831 59.7672ZM16.2331 23.3827C16.2331 22.6923 15.6735 22.1327 14.9831 22.1327C14.2928 22.1327 13.7331 22.6923 13.7331 23.3827H14.9831H16.2331ZM1.29797 31.1871C0.726776 31.5749 0.578039 32.3522 0.965758 32.9234C1.35348 33.4946 2.13083 33.6434 2.70203 33.2556L2 32.2214L1.29797 31.1871ZM15.7234 24.4169C16.2946 24.0292 16.4434 23.2518 16.0557 22.6806C15.6679 22.1094 14.8906 21.9607 14.3194 22.3484L15.0214 23.3827L15.7234 24.4169ZM14.2811 22.3846C13.7099 22.7723 13.5612 23.5496 13.9488 24.1209C14.3365 24.6921 15.1139 24.8408 15.6851 24.4531L14.9831 23.4189L14.2811 22.3846ZM43.2791 4.21385L42.6009 3.16382C42.5929 3.16898 42.585 3.17423 42.5771 3.17957L43.2791 4.21385ZM58.295 4.21385L58.997 3.17957C58.9891 3.17423 58.9812 3.16898 58.9732 3.16382L58.295 4.21385ZM85.889 24.4531C86.4602 24.8408 87.2375 24.6921 87.6252 24.1209C88.0129 23.5496 87.8642 22.7723 87.2929 22.3846L86.591 23.4189L85.889 24.4531ZM63.8361 76.6715C63.1457 76.6715 62.5861 77.2311 62.5861 77.9215C62.5861 78.6118 63.1457 79.1715 63.8361 79.1715V77.9215V76.6715ZM67.0911 77.9215L67.1351 76.6723C67.1204 76.6717 67.1057 76.6715 67.0911 76.6715V77.9215ZM86.6211 59.7672L87.8702 59.8146C87.8708 59.7988 87.8711 59.783 87.8711 59.7672H86.6211ZM87.8711 23.3827C87.8711 22.6923 87.3114 22.1327 86.6211 22.1327C85.9307 22.1327 85.3711 22.6923 85.3711 23.3827H86.6211H87.8711ZM99.0029 33.2504C99.5742 33.638 100.351 33.489 100.739 32.9177C101.127 32.3464 100.978 31.5691 100.406 31.1815L99.7046 32.216L99.0029 33.2504ZM87.3849 22.3482C86.8136 21.9607 86.0363 22.1096 85.6488 22.6809C85.2612 23.2522 85.4101 24.0295 85.9815 24.4171L86.6832 23.3827L87.3849 22.3482ZM37.8698 78.0032H39.1198V65.8979H37.8698H36.6198V78.0032H37.8698ZM37.8698 65.8979L39.1189 65.9457C39.3574 59.7013 44.6026 54.8274 50.8467 55.0474L50.8907 53.7982L50.9347 52.5489C43.3135 52.2804 36.9118 58.2293 36.6207 65.8502L37.8698 65.8979ZM50.8907 53.7982L50.9347 55.0474C57.1788 54.8274 62.424 59.7013 62.6625 65.9457L63.9116 65.8979L65.1607 65.8502C64.8696 58.2293 58.468 52.2804 50.8467 52.5489L50.8907 53.7982ZM63.9116 65.8979H62.6616V78.0032H63.9116H65.1616V65.8979H63.9116ZM37.8698 77.9887V79.2387H63.9127V77.9887V76.7387H37.8698V77.9887ZM37.7681 77.9215V76.6715H34.5131V77.9215V79.1715H37.7681V77.9215ZM34.5131 77.9215L34.4691 76.6723C24.7575 77.0144 16.6004 69.432 16.2322 59.7198L14.9831 59.7672L13.734 59.8146C14.1544 70.9035 23.468 79.5613 34.5571 79.1707L34.5131 77.9215ZM14.9831 59.7672H16.2331V23.3827H14.9831H13.7331V59.7672H14.9831ZM2 32.2214L2.70203 33.2556L15.7234 24.4169L15.0214 23.3827L14.3194 22.3484L1.29797 31.1871L2 32.2214ZM14.9831 23.4189L15.6851 24.4531L43.981 5.24812L43.2791 4.21385L42.5771 3.17957L14.2811 22.3846L14.9831 23.4189ZM43.2791 4.21385L43.9573 5.26387C48.1146 2.57871 53.4595 2.57871 57.6168 5.26387L58.295 4.21385L58.9732 3.16382C53.9902 -0.0546064 47.5839 -0.0546067 42.6009 3.16382L43.2791 4.21385ZM58.295 4.21385L57.593 5.24812L85.889 24.4531L86.591 23.4189L87.2929 22.3846L58.997 3.17957L58.295 4.21385ZM63.8361 77.9215V79.1715H67.0911V77.9215V76.6715H63.8361V77.9215ZM67.0911 77.9215L67.0471 79.1707C78.1361 79.5613 87.4498 70.9035 87.8702 59.8146L86.6211 59.7672L85.3719 59.7198C85.0038 69.432 76.8466 77.0144 67.1351 76.6723L67.0911 77.9215ZM86.6211 59.7672H87.8711V23.3827H86.6211H85.3711V59.7672H86.6211ZM99.7046 32.216L100.406 31.1815L87.3849 22.3482L86.6832 23.3827L85.9815 24.4171L99.0029 33.2504L99.7046 32.216Z" fill="white"/>
</svg>
