<svg width="107" height="80" viewBox="0 0 107 80" fill="none" xmlns="http://www.w3.org/2000/svg">
<path fill-rule="evenodd" clip-rule="evenodd" d="M66.2832 14.8557C66.2832 21.9557 60.5272 27.7114 53.4268 27.7114C46.3263 27.7114 40.5703 21.9557 40.5703 14.8557C40.5703 7.7557 46.3263 2 53.4268 2C60.5272 2 66.2832 7.7557 66.2832 14.8557Z" stroke="white" stroke-width="2.5" stroke-linecap="round" stroke-linejoin="round"/>
<path fill-rule="evenodd" clip-rule="evenodd" d="M79.1367 60.3193C79.1367 70.0625 67.6227 78.0033 53.4238 78.0033C39.2249 78.0033 27.7109 70.0842 27.7109 60.3193C27.7109 50.5543 39.2249 42.6406 53.4238 42.6406C67.6227 42.6406 79.1367 50.5543 79.1367 60.3193Z" stroke="white" stroke-width="2.5" stroke-linecap="round" stroke-linejoin="round"/>
<path fill-rule="evenodd" clip-rule="evenodd" d="M93.4658 26.6643C93.5208 29.7959 91.6766 32.6497 88.7989 33.8864C85.9212 35.123 82.5814 34.4969 80.3471 32.3019C78.1128 30.1069 77.4277 26.7789 78.6133 23.88C79.7989 20.981 82.6198 19.0867 85.752 19.0862C89.9743 19.0502 93.4271 22.4423 93.4658 26.6643V26.6643Z" stroke="white" stroke-width="2.5" stroke-linecap="round" stroke-linejoin="round"/>
<path fill-rule="evenodd" clip-rule="evenodd" d="M13.3762 26.6643C13.3212 29.7959 15.1654 32.6497 18.0431 33.8864C20.9208 35.123 24.2606 34.4969 26.4949 32.3019C28.7292 30.1069 29.4144 26.7789 28.2288 23.88C27.0432 20.981 24.2222 19.0867 21.0901 19.0862C16.8677 19.0502 13.4149 22.4423 13.3762 26.6643Z" stroke="white" stroke-width="2.5" stroke-linecap="round" stroke-linejoin="round"/>
<path d="M89.5273 71.6997C88.8397 71.6382 88.2324 72.1457 88.1708 72.8333C88.1092 73.5209 88.6168 74.1282 89.3044 74.1898L89.4158 72.9447L89.5273 71.6997ZM104.844 60.311L106.086 60.4471C106.096 60.3565 106.096 60.265 106.086 60.1744L104.844 60.311ZM89.3043 46.4376C88.6167 46.4992 88.1092 47.1065 88.1708 47.7941C88.2324 48.4817 88.8398 48.9892 89.5274 48.9276L89.4158 47.6826L89.3043 46.4376ZM17.5392 74.1898C18.2268 74.1283 18.7343 73.5209 18.6727 72.8333C18.6112 72.1457 18.0039 71.6382 17.3163 71.6998L17.4277 72.9448L17.5392 74.1898ZM2 60.311L0.757487 60.1744C0.747522 60.2651 0.747504 60.3565 0.757435 60.4472L2 60.311ZM17.3162 48.9277C18.0038 48.9893 18.6111 48.4818 18.6727 47.7942C18.7343 47.1066 18.2269 46.4992 17.5393 46.4376L17.4277 47.6826L17.3162 48.9277ZM89.4158 72.9447L89.3044 74.1898C97.7072 74.9421 105.167 68.833 106.086 60.4471L104.844 60.311L103.601 60.1748C102.831 67.2074 96.5743 72.3307 89.5273 71.6997L89.4158 72.9447ZM104.844 60.311L106.086 60.1744C105.164 51.7908 97.7051 45.685 89.3043 46.4376L89.4158 47.6826L89.5274 48.9276C96.5726 48.2965 102.828 53.417 103.601 60.4476L104.844 60.311ZM17.4277 72.9448L17.3163 71.6998C10.2693 72.3308 4.01303 67.2074 3.24257 60.1749L2 60.311L0.757435 60.4472C1.67618 68.8331 9.13639 74.9422 17.5392 74.1898L17.4277 72.9448ZM2 60.311L3.24251 60.4476C4.01546 53.4171 10.271 48.2966 17.3162 48.9277L17.4277 47.6826L17.5393 46.4376C9.13849 45.6851 1.67918 51.7908 0.757487 60.1744L2 60.311Z" fill="white"/>
</svg>
